<svg width="131" height="30" viewBox="0 0 131 30" fill="none" xmlns="http://www.w3.org/2000/svg">
<g clip-path="url(#clip0_300_331)">
<path fill-rule="evenodd" clip-rule="evenodd" d="M16.875 0C23.5489 0.756128 28.9005 5.82052 30.0452 12.3376C28.5342 13.2018 27.0343 14.0756 25.5233 14.9384L30.0549 17.5488C29.8482 18.7273 29.5027 19.856 29.0379 20.9251C25.5525 18.9323 22.0879 16.9395 18.6122 14.9481L25.9979 10.6883C24.942 8.02797 22.9176 5.83022 20.341 4.55339V10.1191L16.875 12.1119V0Z" fill="#6E30CC"/>
<path fill-rule="evenodd" clip-rule="evenodd" d="M27.3018 23.9108C23.303 29.2798 16.2142 31.3613 9.96492 29.0929V23.89L5.42361 26.481C4.49537 25.7152 3.68645 24.8511 2.98438 23.9191C6.46008 21.9166 9.93439 19.9238 13.4101 17.931L13.4198 26.4215C16.2725 26.8439 19.196 26.2055 21.595 24.6157L16.747 21.8376V17.8521L27.3018 23.908V23.9108Z" fill="#6E30CC"/>
<path fill-rule="evenodd" clip-rule="evenodd" d="M1.24721 20.9362C-1.4279 14.811 0.30926 7.66653 5.4139 3.42612C6.92489 4.29026 8.4345 5.14333 9.94549 6.01717V0.814292C11.0805 0.401606 12.246 0.127406 13.4115 0C13.4115 3.9856 13.4018 7.9795 13.4115 11.9651L6.00636 7.73439C4.21925 9.9723 3.31044 12.8085 3.48804 15.6654L8.33598 12.8874L11.802 14.8705L1.24721 20.9362Z" fill="#6E30CC"/>
<path d="M35.0664 21.4096V8.59009H40.7205C41.3088 8.59009 41.8485 8.71057 42.3411 8.95153C42.8448 9.1925 43.2777 9.51794 43.6384 9.92647C44.0103 10.3364 44.2933 10.7934 44.4848 11.2989C44.6888 11.8043 44.7914 12.3223 44.7914 12.8513C44.7914 13.3803 44.6957 13.9162 44.5028 14.4217C44.3225 14.9147 44.0588 15.3482 43.7106 15.7221C43.3623 16.0946 42.9544 16.384 42.4854 16.589L45.4033 21.4096H42.6658L40.0365 17.1125H37.5514V21.4096H35.0664ZM37.5514 14.9272H40.6664C40.9786 14.9272 41.2547 14.8371 41.4947 14.6557C41.7348 14.4632 41.9262 14.2098 42.0705 13.8968C42.2148 13.5839 42.287 13.2349 42.287 12.8499C42.287 12.44 42.2037 12.0854 42.0345 11.7849C41.8666 11.472 41.6501 11.2255 41.3865 11.044C41.134 10.864 40.8579 10.7726 40.5582 10.7726H37.5514V14.9258V14.9272Z" fill="#6E30CC"/>
<path d="M55.9216 19.2243V21.4096H47.043V8.59009H55.7593V10.7754H49.528V13.8622H54.9129V15.8841H49.528V19.2243H55.9202H55.9216Z" fill="#6E30CC"/>
<path d="M62.944 21.4997C62.1156 21.4997 61.3289 21.3307 60.5852 20.9942C59.8526 20.6577 59.2046 20.1938 58.6399 19.6038C58.0877 19.0014 57.6562 18.3034 57.344 17.5099C57.0318 16.715 56.875 15.855 56.875 14.9286C56.875 14.0492 57.0304 13.2252 57.344 12.4552C57.6562 11.6728 58.0946 10.9873 58.6579 10.3973C59.2227 9.80738 59.8831 9.34345 60.6393 9.00694C61.3955 8.67042 62.2183 8.50146 63.1063 8.50146C64.3065 8.50146 65.3332 8.76043 66.1866 9.27837C67.051 9.78384 67.6989 10.4583 68.1318 11.3002L66.2767 12.6726C65.9521 12.0342 65.497 11.5467 64.9087 11.2102C64.3328 10.8737 63.7015 10.7048 63.0175 10.7048C62.4778 10.7048 61.9852 10.8197 61.5412 11.0482C61.0972 11.2767 60.7128 11.5897 60.3882 11.9871C60.0635 12.3846 59.8123 12.8416 59.632 13.3595C59.4641 13.8775 59.3795 14.4245 59.3795 15.0019C59.3795 15.6154 59.4696 16.1818 59.65 16.6998C59.8415 17.2177 60.1065 17.6692 60.4423 18.0542C60.7905 18.4391 61.1929 18.7466 61.6494 18.9751C62.1059 19.1911 62.6096 19.3005 63.1618 19.3005C63.8098 19.3005 64.4286 19.1316 65.0169 18.7951C65.6177 18.4585 66.1755 17.9641 66.6916 17.3146V19.77C65.6232 20.925 64.3745 21.5038 62.9453 21.5038L62.944 21.4997ZM66.5098 16.643H63.9346V14.8191H68.5634V21.4096H66.5098V16.643Z" fill="#6E30CC"/>
<path d="M76.1336 21.4997C75.1971 21.4997 74.3451 21.3196 73.5765 20.9582C72.8203 20.5967 72.1654 20.1093 71.6131 19.4958C71.0734 18.8698 70.653 18.1719 70.3533 17.4019C70.0536 16.6195 69.9023 15.819 69.9023 15.0006C69.9023 14.1821 70.0577 13.3332 70.3713 12.5632C70.696 11.7808 71.1331 11.0884 71.6853 10.4873C72.25 9.87385 72.9105 9.39192 73.6666 9.04294C74.4353 8.6815 75.2748 8.50146 76.1877 8.50146C77.1007 8.50146 77.9527 8.68842 78.7088 9.06094C79.4775 9.43347 80.131 9.9334 80.6722 10.5594C81.2119 11.1853 81.6323 11.8833 81.9334 12.6532C82.2331 13.4232 82.383 14.2181 82.383 15.0366C82.383 15.855 82.2276 16.6915 81.9154 17.4739C81.6032 18.2439 81.1647 18.9363 80.6014 19.5498C80.0492 20.1522 79.3887 20.6272 78.62 20.9762C77.8639 21.3252 77.0355 21.4997 76.135 21.4997H76.1336ZM72.4234 14.9992C72.4234 15.5531 72.5067 16.0891 72.676 16.6056C72.8439 17.1235 73.0839 17.5861 73.3961 17.996C73.7208 18.3934 74.1106 18.712 74.5671 18.9529C75.0361 19.1814 75.5634 19.2964 76.1517 19.2964C76.74 19.2964 77.2867 19.1759 77.7542 18.9349C78.2218 18.6815 78.6131 18.3505 78.9253 17.942C79.2375 17.521 79.472 17.0571 79.6274 16.5516C79.7953 16.0337 79.8799 15.5171 79.8799 14.9992C79.8799 14.4452 79.7897 13.9162 79.6093 13.4108C79.4415 12.8928 79.1959 12.4358 78.8712 12.0384C78.559 11.6285 78.1691 11.3099 77.7001 11.0814C77.2436 10.8405 76.7275 10.72 76.1517 10.72C75.5398 10.72 74.9987 10.846 74.5311 11.0994C74.0746 11.3404 73.6902 11.6658 73.378 12.0744C73.0659 12.4829 72.8258 12.9413 72.6579 13.4468C72.5025 13.9522 72.4234 14.4702 72.4234 14.9992Z" fill="#6E30CC"/>
<path d="M84.293 21.4096V8.59009H86.778V19.2243H93.2965V21.4096H84.293Z" fill="#6E30CC"/>
<path d="M99.9813 21.4997C99.0447 21.4997 98.1928 21.3196 97.4241 20.9582C96.6679 20.5967 96.013 20.1093 95.4608 19.4958C94.9211 18.8698 94.5006 18.1719 94.1996 17.4019C93.8998 16.6195 93.75 15.819 93.75 15.0006C93.75 14.1821 93.9054 13.3332 94.2176 12.5632C94.5423 11.7808 94.9807 11.0884 95.5316 10.4873C96.0963 9.87385 96.7567 9.39192 97.5129 9.04294C98.2816 8.6815 99.1224 8.50146 100.034 8.50146C100.946 8.50146 101.799 8.68842 102.555 9.06094C103.324 9.43347 103.977 9.9334 104.518 10.5594C105.058 11.1853 105.479 11.8833 105.778 12.6532C106.078 13.4232 106.229 14.2181 106.229 15.0366C106.229 15.855 106.074 16.6915 105.76 17.4739C105.448 18.2439 105.01 18.9363 104.446 19.5498C103.894 20.1522 103.234 20.6272 102.465 20.9762C101.709 21.3252 100.88 21.4997 99.9799 21.4997H99.9813ZM96.2711 14.9992C96.2711 15.5531 96.3557 16.0891 96.5236 16.6056C96.6915 17.1235 96.9316 17.5861 97.2437 17.996C97.5684 18.3934 97.9583 18.712 98.4148 18.9529C98.8824 19.1814 99.411 19.2964 99.9993 19.2964C100.588 19.2964 101.134 19.1759 101.602 18.9349C102.071 18.6815 102.461 18.3505 102.773 17.942C103.085 17.521 103.32 17.0571 103.475 16.5516C103.643 16.0337 103.728 15.5171 103.728 14.9992C103.728 14.4452 103.637 13.9162 103.457 13.4108C103.289 12.8928 103.042 12.4358 102.719 12.0384C102.407 11.6285 102.017 11.3099 101.548 11.0814C101.091 10.8405 100.575 10.72 99.9993 10.72C99.3874 10.72 98.8463 10.846 98.3787 11.0994C97.9222 11.3404 97.5379 11.6658 97.2257 12.0744C96.9135 12.4843 96.6735 12.9413 96.5056 13.4468C96.3502 13.9522 96.2711 14.4702 96.2711 14.9992Z" fill="#6E30CC"/>
<path d="M113.452 21.4997C112.623 21.4997 111.837 21.3307 111.093 20.9942C110.36 20.6577 109.712 20.1938 109.148 19.6038C108.595 19.0014 108.164 18.3034 107.85 17.5099C107.538 16.715 107.383 15.855 107.383 14.9286C107.383 14.0492 107.538 13.2252 107.85 12.4552C108.163 11.6728 108.601 10.9873 109.166 10.3973C109.73 9.80738 110.391 9.34345 111.147 9.00694C111.903 8.67042 112.726 8.50146 113.614 8.50146C114.814 8.50146 115.841 8.76043 116.693 9.27837C117.557 9.78384 118.205 10.4583 118.638 11.3002L116.783 12.6726C116.458 12.0342 116.002 11.5467 115.415 11.2102C114.839 10.8737 114.208 10.7048 113.524 10.7048C112.984 10.7048 112.492 10.8197 112.048 11.0482C111.604 11.2767 111.219 11.5897 110.895 11.9871C110.57 12.3846 110.319 12.8416 110.138 13.3595C109.971 13.8775 109.886 14.4245 109.886 15.0019C109.886 15.6154 109.976 16.1818 110.156 16.6998C110.348 17.2177 110.613 17.6692 110.949 18.0542C111.297 18.4391 111.699 18.7466 112.156 18.9751C112.612 19.1911 113.116 19.3005 113.668 19.3005C114.316 19.3005 114.935 19.1316 115.523 18.7951C116.124 18.4585 116.682 17.9641 117.198 17.3146V19.77C116.13 20.925 114.881 21.5038 113.452 21.5038V21.4997ZM117.018 16.643H114.442V14.8191H119.071V21.4096H117.018V16.643Z" fill="#6E30CC"/>
<path d="M121.957 8.59009L125.108 14.6211L128.313 8.59009H130.996L126.35 16.931V21.4083H123.883V16.895L119.254 8.59009H121.955H121.957Z" fill="#6E30CC"/>
</g>
<defs>
<clipPath id="clip0_300_331">
<rect width="131" height="30" fill="white" transform="matrix(1 0 0 -1 0 30)"/>
</clipPath>
</defs>
</svg>
